<svg width="32" height="32" viewBox="0 0 32 32" fill="none" xmlns="http://www.w3.org/2000/svg">
<path d="M15 7.93747C14.375 7.37497 13.4375 7.37497 12.875 7.93747C12.25 8.56247 12.25 9.49997 12.875 10.0625L18.875 16L12.9375 22C12.3125 22.5625 12.3125 23.5 12.9375 24.0625C13.5 24.6875 14.4375 24.6875 15.0625 24.0625L22.0625 17.0625C22.3125 16.8125 22.5 16.4375 22.5 16C22.5 15.625 22.3125 15.25 22 15L15 7.93747ZM16 -3.05176e-05C7.125 -3.05176e-05 0 7.18747 0 16C0 24.875 7.125 32 16 32C24.8125 32 32 24.875 32 16C32 7.18747 24.8125 -3.05176e-05 16 -3.05176e-05ZM16 29C8.8125 29 3 23.1875 3 16C3 8.87497 8.8125 2.99997 16 2.99997C23.125 2.99997 29 8.87497 29 16C29 23.1875 23.125 29 16 29Z" fill="white"/>
<path d="M0 16C0 24.875 7.125 32 16 32C24.8125 32 32 24.875 32 16C32 7.18747 24.8125 -3.05176e-05 16 -3.05176e-05C7.125 -3.05176e-05 0 7.18747 0 16ZM15.0625 23.5625C14.4375 24.1875 13.5 24.1875 12.9375 23.5625C12.3125 23 12.3125 22.0625 12.9375 21.5L18.375 16.0625L12.9375 10.625C12.3125 9.99997 12.3125 9.06247 12.9375 8.49997C13.5 7.87497 14.4375 7.87497 15.0625 8.49997L21.5625 14.9375C22.125 15.5625 22.125 16.5 21.5625 17.0625L15.0625 23.5625Z" fill="#34C94B"/>
</svg>
